@startuml
class User1
class User2
class User3
interface U1Ops {
 + op1()
}
interface U2Ops {
 + op2()
}
interface U3Ops {
 + op3()
}
class OPS
User1 -[hidden] User2
User2 -[hidden] User3
U1Ops -[hidden] U2Ops
U2Ops -[hidden] U3Ops

User1 --> U1Ops 
User2 --> U2Ops
User3 --> U3Ops

U1Ops <|.. OPS 
U2Ops <|.. OPS
U3Ops <|.. OPS
@enduml
